<?xml version="1.0" encoding="utf-8"?>
<!-- Generator: Adobe Illustrator 26.4.1, SVG Export Plug-In . SVG Version: 6.00 Build 0)  -->
<svg version="1.1" id="Layer_1" xmlns="http://www.w3.org/2000/svg" xmlns:xlink="http://www.w3.org/1999/xlink" x="0px" y="0px"
	 viewBox="0 0 16 16" style="enable-background:new 0 0 16 16;" xml:space="preserve">
<style type="text/css">
	.st0{fill:#707070;}
</style>
<path class="st0" d="M10.7,7.7c0.6-0.8,1-1.6,1-2.5c0-2.3-2-4-4.6-4H3.3v13.9h5c2.6,0,4.6-1.8,4.6-4.1C12.9,9.7,12,8.5,10.7,7.7z
	 M5.8,3.2h1.9c1,0,1.9,0.9,1.9,2s-0.9,2-2,2H5.8V3.2z M8.7,13.1H5.8V9.2h2.9c1,0,2,0.9,2,2C10.7,12.4,9.7,13.1,8.7,13.1z"/>
</svg>
