<?xml version="1.0" encoding="utf-8"?>
<!-- Generator: Adobe Illustrator 26.4.1, SVG Export Plug-In . SVG Version: 6.00 Build 0)  -->
<svg version="1.1" id="Layer_1" xmlns="http://www.w3.org/2000/svg" xmlns:xlink="http://www.w3.org/1999/xlink" x="0px" y="0px"
	 viewBox="0 0 16 16" style="enable-background:new 0 0 16 16;" xml:space="preserve">
<style type="text/css">
	.st0{fill:#707070;}
</style>
<path class="st0" d="M15.3,8v0.8h-3.4c0.5,0.5,0.6,1.1,0.6,1.6c0,0.9-0.5,1.8-1.5,2.3c-0.8,0.6-1.9,0.8-3.1,0.8s-2.3-0.4-3.1-0.8
	c-0.9-0.6-1.5-1.5-1.5-2.3h1.8c0,0.8,1.3,1.6,2.7,1.6s2.7-0.7,2.7-1.6c0-0.9-1.3-1.6-2.7-1.6H0.7V8H5c0,0-0.1,0-0.1-0.1
	C4,7.3,3.5,6.5,3.5,5.7S4,3.9,4.9,3.3C5.7,2.7,6.8,2.4,8,2.4s2.3,0.4,3.1,0.8c0.9,0.6,1.5,1.4,1.5,2.3h-1.8C10.7,4.7,9.5,4,8,4
	S5.3,4.7,5.3,5.7S6.5,7.3,8,7.3c1.1,0,2.2,0.2,3,0.8h4.3V8z"/>
</svg>
