<?xml version="1.0" encoding="utf-8"?>
<!-- Generator: Adobe Illustrator 26.4.1, SVG Export Plug-In . SVG Version: 6.00 Build 0)  -->
<svg version="1.1" id="Layer_1" xmlns="http://www.w3.org/2000/svg" xmlns:xlink="http://www.w3.org/1999/xlink" x="0px" y="0px"
	 viewBox="0 0 20 16" style="enable-background:new 0 0 20 16;" xml:space="preserve">
<style type="text/css">
	.st0{fill:#7C7C7C;}
</style>
<path class="st0" d="M19.2,0h-6c-0.4,0-1,0.2-1.3,0.5L4.5,8C4.2,8.3,4.2,8.7,4.5,9l6.4,6.4c0.3,0.3,0.8,0.3,1.1,0L19.5,8
	C19.8,7.7,20,7.2,20,6.8v-6C20,0.3,19.7,0,19.2,0z M15.5,6C14.7,6,14,5.3,14,4.5S14.7,3,15.5,3C16.3,3,17,3.7,17,4.5S16.3,6,15.5,6z
	"/>
<path class="st0" d="M2,8.5L10.5,0H9.2C8.8,0,8.3,0.2,8,0.5L0.5,8C0.2,8.3,0.2,8.7,0.5,9L7,15.5c0.3,0.3,0.8,0.3,1.1,0L8.5,15L2,8.5
	L2,8.5z"/>
</svg>
